<?xml version="1.0" standalone="no"?><!DOCTYPE svg PUBLIC "-//W3C//DTD SVG 1.1//EN" "http://www.w3.org/Graphics/SVG/1.1/DTD/svg11.dtd"><svg t="1526377151029" class="icon" style="" viewBox="0 0 1024 1024" version="1.1" xmlns="http://www.w3.org/2000/svg" p-id="3265" xmlns:xlink="http://www.w3.org/1999/xlink" width="200" height="200"><defs><style type="text/css"></style></defs><path d="M375.210708 258.196765l-1.745511-114.846683 68.174102-40.206256 101.41815-68.134431 41.356707-1.745511 43.707196 46.613075 23.306538 155.003351-32.053928 56.530751-131.11167-3.50094z" fill="#FFFFFF" p-id="3266"></path><path d="M240.03279 586.273472l34.979642-98.532106 68.174102-81.582799 34.969724-69.879942 15.154208-23.306538 249.379951-38.460746 50.114015 78.667003 139.839225 334.483525-48.368503 59.43663-126.440446 212.109327-29.753027 6.406818-231.339699 6.406818-161.995313-179.509927-26.182663-149.71723z" fill="#FFFFFF" p-id="3267"></path><path d="M559.94725 331.032174s-8.162247-1.745511 15.154209-6.991961c23.306538-4.661308 23.306538-9.917676 29.753026-16.860048 6.406818-6.406818 9.917676-21.561027 9.917676-38.460746s8.162247-64.68308 6.406818-78.08186-29.753027-63.473123-41.376542-69.92953-141.644242-18.099758-141.644242-18.099758l-40.206257 31.468785-29.753027 29.13813 6.991962 89.735129a169.324475 169.324475 0 0 0-6.991962 39.670702c1.745511 11.653269 18.64523 25.061966 25.061966 31.468784 6.406818 6.991961 31.468785 33.214295 39.670703 41.951768 8.162247 8.162247 9.917676 16.860048 29.753026 9.917676 19.835351-6.406818 31.468785-6.406818 46.613075-18.060088a348.566625 348.566625 0 0 1 50.699158-26.777724z" fill="#FFD400" p-id="3268"></path><path d="M483.025759 190.022663c5.24645-13.39878 11.653269-38.460746 23.306537-46.613075a93.335245 93.335245 0 0 1 51.859526-13.398779c15.154208 1.745511 43.122053 16.860048 50.114014 28.552988 6.406818 11.653269 6.406818 58.276262 6.406819 58.276261l-3.50094 38.460746-23.306537-1.745511-50.114015-20.390741h-8.162247s-8.162247 3.500939-33.214295-9.917675-18.64523-19.835351-13.39878-33.214296z" fill="#FFFFFF" p-id="3269"></path><path d="M429.995948 226.152755a21.997404 21.997404 0 0 1 4.661307-2.915796 278.180881 278.180881 0 0 1 32.053928-13.983923s21.561027-54.775322 3.500939-76.366101-58.276262-18.060087-58.276261-18.060088-43.122053 25.061966-41.951768 34.959807c1.745511 9.917676 3.500939 44.867564 5.24645 50.114014s8.162247 58.276262 8.162247 58.276262l15.154209-6.406819 21.561026-16.860048a103.669462 103.669462 0 0 0 9.917676-8.737472z" fill="#FFFFFF" p-id="3270"></path><path d="M747.579754 729.038412s10.492901 0.585143 23.89168 1.745511c3.500939 0 6.991961 0.585143 10.492901 0.585142 18.060087 0.585143 33.799438 3.500939 50.114015 5.246451 11.068126 1.170286 29.138131 8.162247 30.883641 22.146169 1.745511 20.390741-4.076165 43.122053 13.39878 51.2843 18.060087 12.238412 57.691119 40.206257 57.691119 40.206257l11.653268 21.561027-34.959806 31.468784-171.317927 103.143826-78.08186-26.777724v-63.473124l3.50094-85.07382-8.162247-76.366102 13.398779-29.753027 33.214296-9.917675 44.282421 13.983922z" fill="#FFD400" p-id="3271"></path><path d="M251.686059 691.747952c-1.745511-1.745511-32.053927 7.577104-33.799438 7.577104-13.983923 2.330654-32.053927 11.653269-32.053928 27.39262a51.879361 51.879361 0 0 1-4.076164 23.306537c-2.915797 5.831593-9.322615 13.983923-9.322615 15.729433a42.189792 42.189792 0 0 1-11.653269 18.060088c-6.406818 0.585143-35.544949 3.500939-35.544949 3.500939h-25.061966l-15.154208 18.060087 11.653268 48.368504-3.500939 37.875603-11.643351 43.122053 27.967845 15.154208 213.230024 56.530751 48.368504-15.154208 25.061966-61.767284-5.246451-23.306537-23.306537-46.613075c0.585143 1.170286-100.813172-146.265879-115.957463-167.826906z" fill="#FFD400" p-id="3272"></path><path d="M360.65156 169.036862c-3.500939-115.957462 41.376542-167.241763 135.772978-168.957521 93.821211-1.775264 152.672697 47.753608 164.891274 113.061502 11.653269 64.68308 5.24645 150.342044 29.138131 194.634382s39.045889 78.667002 80.412513 129.92155a373.380649 373.380649 0 0 1 78.667003 166.616949c12.238412 63.473123 18.64523 93.22615-11.653269 125.86522-30.883642 32.629153-85.658964 85.658964-126.450363 25.637192-20.390741-29.753027-22.721395-67.013734 11.653268-75.175981a72.508126 72.508126 0 0 1 54.775322 5.24645c16.860048 8.737472 20.390741 4.661308 0.585143-10.4929-19.835351-14.569065-23.89168-1.170286-16.860048-25.061967a174.412242 174.412242 0 0 0-2.915797-114.211951c-8.737472-21.561027-37.875603-81.582799-65.843448-96.151864-2.330654-1.170286-9.917676-4.661308-4.661307 1.74551 7.577104 9.322615 47.198218 68.174102 58.276261 102.558683 12.238412 37.29046 13.983923 73.390799 7.577104 96.151865s-16.929472 32.073763-30.328251 32.073762-25.061966 6.406818-25.061966-23.89168 2.915797-75.751206-12.823555-114.211952c-16.314576-38.460746-36.130092-64.68308-40.206257-80.997656s-13.39878-60.021772-33.214295-84.498595c-19.835351-25.061966-28.552988-40.7914-18.060087-69.344388 10.492901-27.967845 2.330654-35.544949-18.060087-41.951767-20.390741-5.831593-47.783361-14.569065-54.775322-28.552988-6.991961-13.39878-2.330654-40.7914 12.823554-47.783361s40.7914 2.330654 41.951768 22.146169-8.737472 29.753027-5.831594 34.384582c2.330654 4.076165 16.314576 11.068126 23.306538 3.500939s8.737472-31.468785 1.745511-53.614954-10.532571-37.84585-34.959806-42.53691c-25.061966-5.24645-36.130092-3.500939-47.783361 11.653268a80.184407 80.184407 0 0 0-13.39878 58.276262c3.500939 18.060087-3.500939 7.577104-15.729433 6.991961a79.738111 79.738111 0 0 0-20.390741-0.585143c-11.653269 0.585143-7.577104-6.991961-8.737472-19.835351-0.585143-12.823554-2.330654-39.670702-20.390741-49.528871-18.060087-10.492901-48.953646 1.745511-47.783361 44.282421s15.729433 63.473123 23.89168 47.783361c8.737472-15.154208 4.076165-7.577104-4.076164-14.569066-8.737472-6.991961-14.569065-34.959806-5.246451-43.707196a20.35107 20.35107 0 0 1 26.777724-3.500939 48.051138 48.051138 0 0 1 13.39878 33.214295c-1.745511 11.068126-2.330654 11.653269-13.39878 19.835351-11.068126 7.577104-15.729433 14.569065-28.552988 22.721395-12.823554 8.737472-18.060087 28.552988-7.577104 33.214295a33.720097 33.720097 0 0 1 19.835351 16.860049c8.737472 12.823554 23.306538 18.64523 58.851487 12.823554s50.699157-14.569065 77.506634-23.89168c19.835351-6.991961 12.823554-5.831593 19.835352-13.39878s18.060087 3.500939 7.577104 10.492901a317.980513 317.980513 0 0 1-50.699158 19.835351c-16.860048 5.831593-36.6954 23.306538-72.845327 21.561026s-11.068126-1.170286-22.146169-1.74551c-11.068126-1.170286-16.314576 0.585143-4.076165 9.322615s11.068126 11.068126 21.561027 14.569065a61.162305 61.162305 0 0 0 40.206257-2.330654 482.504833 482.504833 0 0 0 69.92953-32.629152c12.823554-8.737472 22.721395 2.330654 10.492901 11.068126-12.823554 8.737472-16.314576 5.831593-28.552988 13.398779a332.75785 332.75785 0 0 0-48.953647 34.384581c-14.569065 13.39878-18.060087 14.569065-36.130092 15.154209-18.060087 1.170286-29.138131-18.060087-36.695399-26.222335s-6.991961-13.39878-16.314577-23.89168-10.492901-7.577104-11.653268 3.50094a221.997249 221.997249 0 0 1-25.637192 58.276261 102.350412 102.350412 0 0 0-10.542489 58.276262c1.745511 16.314576-2.330654 18.060087-15.154208 36.695399a404.988281 404.988281 0 0 0-37.875603 92.065782 356.232988 356.232988 0 0 0-5.831593 76.366102c1.745511 21.561027-4.076165 25.637191-19.835351 11.068126a64.157443 64.157443 0 0 1-19.835351-52.444669 137.935031 137.935031 0 0 1 5.831593-37.875602c2.330654-6.991961 0-11.653269-4.661308-2.915797a102.152058 102.152058 0 0 0-8.162247 60.606915 88.792949 88.792949 0 0 0 31.468785 57.105976 1209.143167 1209.143167 0 0 0 103.778557 87.999535c34.384581 25.061966 46.03785 55.360465-4.076165 77.506634 31.468785 43.122053 48.953646 65.268223 34.959806 93.226151 28.552988-16.314576 17.484862-54.775322 3.50094-64.68308-13.983923-10.492901-5.24645-18.060087 6.406818-10.492901s16.314576 22.721395 63.473124 22.146169c47.198218-1.170286 97.897375-5.831593 125.86522-46.613075s33.799438-6.406818 26.777724 17.484862-23.89168 78.08186 2.915797 72.845327c3.500939-31.468785 11.068126-58.851487 11.068126-93.22615s3.500939-50.699157 0.585142-100.228029c-2.330654-47.783361 18.060087-51.2843 39.670703-51.2843s14.569065 13.983923 1.170285 12.823554c-13.983923-1.170286-27.967845 4.076165-29.13813 39.670703-1.170286 34.959806 0 31.468785 5.831593 63.473123a175.9594 175.9594 0 0 1 1.745511 76.366102c-5.24645 34.959806-9.322615 53.614954 13.983922 75.17598 22.721395 21.561027 58.276262 15.154208 76.366102 1.745511s51.859525-45.452707 82.743167-55.360465c30.883642-10.492901 63.473123-18.060087 80.412513-34.959806s12.823554-29.138131-5.24645-38.460746-34.959806-5.24645-48.953647-20.390741a89.378092 89.378092 0 0 1-15.729433-67.598876c5.24645-18.060087 11.068126-10.492901 11.068126 2.330654a55.93569 55.93569 0 0 0 13.39878 40.791399 153.188416 153.188416 0 0 0 45.452707 36.6954c20.390741 12.823554 33.214295 33.214295 7.577104 51.2843a289.149831 289.149831 0 0 1-61.767284 36.695399 269.383903 269.383903 0 0 0-77.506634 50.114015c-21.561027 21.561027-33.214295 40.206257-75.175981 40.206257s-61.18214-9.917676-73.390799-34.959807c-8.737472-16.860048-12.823554-14.569065-32.629152-15.729433-19.835351-0.585143-85.658964-1.745511-136.943264-0.585143-51.2843 0.585143-68.174102 9.322615-91.490557 27.967845-22.721395 18.64523-31.468785 33.214295-75.175981 18.64523s-67.013734-30.883642-131.696813-43.707196c-65.268223-12.823554-29.753027-6.991961-69.344388-15.729433-39.670702-8.162247-36.6954-27.39262-31.468784-42.536911s18.060087-39.670702 6.991961-71.089898-7.001879-64.137608 23.29662-64.137608c29.753027 0 58.276262 5.831593 69.92953-33.214295 12.238412-39.670702 15.729433-8.737472 12.238412 1.745511s-5.24645 38.460746-31.468785 42.53691-32.629153-1.745511-48.953646-1.745511-22.721395 11.068126-14.569065 29.753027c8.737472 18.64523 18.060087 38.460746 16.314576 54.775322a58.226673 58.226673 0 0 1-15.729434 37.875603c-12.238412 15.154208-10.492901 23.306538 11.068126 27.967845 21.561027 5.24645 60.021772 15.729433 95.566722 23.89168 36.130092 8.162247 38.460746 8.162247 100.813172 25.061966 62.352426 16.314576 79.837288-12.823554 84.498595-47.783361 5.24645-34.959806-18.64523-68.174102-40.791399-101.97354a1124.981772 1124.981772 0 0 0-75.175981-106.634847c-29.138131-34.959806-46.03785-37.875603-60.606915-29.753027-14.569065 7.577104-16.860048 5.831593-18.060087-13.398779a92.37323 92.37323 0 0 1 13.39878-61.767284 637.448678 637.448678 0 0 0 47.793278-109.560561c16.860048-48.953646 32.629153-58.276262 61.767283-100.228029s16.314576-25.637191 36.6954-53.614954c20.390741-28.552988 14.569065-23.306538 12.823554-67.598877-2.330654-44.282421-4.076165-69.92953-5.24645-128.195874z m-82.158024 347.892223c4.661308 5.24645 10.492901-6.991961 16.860049-12.238412a22.404029 22.404029 0 0 0 6.991961-20.390741c-0.585143-4.076165-6.991961-2.915797-8.162247-1.170286-4.076165 4.076165-2.915797 10.492901-5.831593 16.314577-2.915797 6.406818-13.983923 12.238412-9.917676 17.484862z m367.687903-178.904949c9.322615 7.577104 15.154208 14.569065 19.835351 2.915796 5.24645-11.653269 5.24645-16.314576-6.991961-20.975884a49.866073 49.866073 0 0 1-23.306537-16.314576c-5.831593-6.406818-7.577104 4.661308-2.915797 15.154208a31.677056 31.677056 0 0 0 13.39878 19.230373z m-192.293811-106.049705a19.577492 19.577492 0 0 0-18.060087 4.076165 4.958838 4.958838 0 0 0 2.330654 7.577104c4.076165 1.745511 6.406818-2.330654 6.991961-5.246451 0.585143-1.170286 1.170286-2.915797 2.330654-3.500939 1.745511-1.170286 4.076165 0 5.831593-1.170286 1.745511 0.585143 0.585143-1.745511 0.585143-1.745511z m29.753027 1.170286c2.330654 4.076165 6.991961 4.076165 11.068126 5.831593 2.330654 1.170286 6.406818 2.330654 7.577104-0.585143 2.915797-9.322615-9.917676-6.406818-15.729434-6.406818-1.170286 0-4.076165-0.585143-2.915796 1.170285z m62.352426-41.376543c5.831593 0 13.983923 10.492901 14.569065 22.721395 0 1.745511 5.24645 1.745511 5.831593 0 2.915797-4.661308 0.585143-9.917676-0.585142-15.729433a21.561027 21.561027 0 0 0-11.068126-11.653269 15.560833 15.560833 0 0 0-10.492901-1.745511c-0.585143 0.585143-4.661308 6.406818 1.745511 6.406818z m-127.035506-2.915796c-5.24645 0.585143-3.500939 4.661308-2.915797 8.162247 7.577104 4.076165 8.162247 13.39878 9.322615 20.975883 0 2.915797 4.661308 1.745511 4.661308 0.585143 3.500939-5.831593-0.585143-12.823554-2.330654-19.835351a23.802421 23.802421 0 0 0-6.991961-10.4929c-0.585143-0.585143-1.170286 0.585143-1.745511 0.585142z m163.125927-131.111671c-5.24645-4.076165-13.39878-5.831593-16.314576 1.170286a95.854334 95.854334 0 0 0-2.915797 18.64523c0 2.330654-2.330654 2.330654-4.076164 4.661307-2.330654 2.330654-1.745511 5.831593-0.585143 6.406819 4.661308 5.24645 13.983923-4.661308 20.390741-8.162247 4.661308-2.915797 12.238412 1.170286 17.484862-2.330654a3.282751 3.282751 0 0 0 0.585143-5.24645c-2.915797-6.991961-9.322615-10.492901-14.569066-15.154209z" fill="" p-id="3273"></path><path d="M735.926485 737.775884c0.585143-3.500939 2.330654-10.492901 5.831593-11.653269 1.170286-0.585143 2.330654 0 2.330654 1.170286a169.453404 169.453404 0 0 0-0.585143 17.484862c1.170286 2.915797 4.661308 2.330654 6.991962 1.745511a13.577298 13.577298 0 0 0 8.737472-9.322615h-0.585143c-1.170286 0-1.745511 3.500939-4.076165 4.076164a2.598431 2.598431 0 0 1-3.500939-1.170285 169.691429 169.691429 0 0 0 0.585143-18.060088 5.63324 5.63324 0 0 0-6.991962-2.915796c-6.406818 2.330654-9.322615 11.653269-10.4929 17.484862l1.170285-13.39878-8.162247 2.330654-0.585142 27.39262 7.577104-2.330654c0.585143-4.076165 1.170286-9.322615 1.745511-12.823555z" fill="" p-id="3274"></path><path d="M770.311066 740.731351a13.289685 13.289685 0 0 0 8.737472-10.492901 0.575225 0.575225 0 0 0-0.585142-0.585142c-0.585143 0-1.745511 4.661308-5.246451 5.831593a2.598431 2.598431 0 0 1-3.500939-1.170286 23.504891 23.504891 0 0 1 0-6.406818v-12.238412l8.737472-2.915797v-2.915796l-8.737472 2.915796 0.585143-11.653268-7.577104 4.661307-0.575226 26.182664v6.406818a6.456407 6.456407 0 0 0 8.162247 2.330654z" fill="" p-id="3275"></path></svg>