<?xml version="1.0" standalone="no"?><!DOCTYPE svg PUBLIC "-//W3C//DTD SVG 1.1//EN" "http://www.w3.org/Graphics/SVG/1.1/DTD/svg11.dtd"><svg t="1526377415601" class="icon" style="" viewBox="0 0 1024 1024" version="1.1" xmlns="http://www.w3.org/2000/svg" p-id="11958" xmlns:xlink="http://www.w3.org/1999/xlink" width="200" height="200"><defs><style type="text/css"></style></defs><path d="M110.652283 897.809479c-33.903603 0-61.583278-27.691675-61.583278-61.591278L49.069005 155.862173c0-34.1036 27.675676-61.607278 61.583278-61.607278l75.167119 0c11.367867 0 20.531759-9.163893 20.531759-20.543759 0-11.367867-9.163893-20.531759-20.531759-20.531759L110.652283 53.179377c-56.615337 0-102.658797 46.031461-102.658797 102.662797l0 680.160029c0 56.635336 46.04346 102.710796 102.658797 102.710796l298.6285 0-40.883521-40.94352L110.652283 897.769479 110.652283 897.809479 110.652283 897.809479zM816.160016 155.862173c0-56.643336-46.023461-102.658797-102.658797-102.658797L639.078091 53.203377c-11.379867 0-20.531759 9.171893-20.531759 20.531759 0 11.379867 9.151893 20.543759 20.531759 20.543759l74.423128 0c33.919603 0 61.611278 27.687676 61.611278 61.603278L775.112497 315.436303l41.067519 41.075519L816.180015 155.862173 816.160016 155.862173 816.160016 155.862173zM613.730388 173.273969 210.407114 173.273969c-25.471702 0-46.003461 20.51976-46.003461 46.019461 0 25.475701 20.531759 46.003461 46.003461 46.003461l403.323274 0c25.347703 0 46.06746-20.531759 46.06746-46.003461C659.793848 193.797729 639.262089 173.273969 613.730388 173.273969L613.730388 173.273969 613.730388 173.273969zM534.931311 73.35514C534.931311 32.847615 502.087696 0 461.588171 0L362.581331 0C322.077806 0 289.27419 32.847615 289.27419 73.35514L289.27419 177.837916l245.657121 0L534.931311 73.35514 534.931311 73.35514 534.931311 73.35514zM412.076751 138.450378c-26.779686 0-48.579431-21.815744-48.579431-48.579431 0-26.767686 21.799745-48.60343 48.579431-48.60343 26.767686 0 48.567431 21.835744 48.567431 48.60343C460.644182 116.634633 438.840437 138.450378 412.076751 138.450378L412.076751 138.450378 412.076751 138.450378zM638.722095 376.259591c0 12.495854-22.831732 22.591735-51.051402 22.591735L216.73504 398.851326c-28.18767 0-51.059402-10.099882-51.059402-22.591735l0 0c0-12.471854 22.859732-22.571735 51.059402-22.571735l370.935653 0C615.890363 353.711855 638.722095 363.787737 638.722095 376.259591L638.722095 376.259591 638.722095 376.259591zM638.722095 565.693371c0 12.495854-22.831732 22.575735-51.051402 22.575735L216.73504 588.269106c-28.18767 0-51.059402-10.079882-51.059402-22.575735l0 0c0-12.491854 22.859732-22.567736 51.059402-22.567736l370.935653 0C615.890363 543.125635 638.722095 553.201517 638.722095 565.693371L638.722095 565.693371 638.722095 565.693371zM596.090595 755.079151c0 12.499854 19.795768 22.619735-8.419901 22.619735L216.73504 777.698886c-28.18767 0-51.059402-10.119881-51.059402-22.619735l0 0c0-12.447854 22.859732-22.571735 51.059402-22.571735l370.935653 0C615.890363 732.511416 596.090595 742.631297 596.090595 755.079151L596.090595 755.079151 596.090595 755.079151zM859.355509 626.604657c12.635852-3.539959 24.72771-7.095917 36.395573-10.619876 10.119881-3.059964 20.47976-6.071929 31.103636-9.131893 10.623876-3.035964 19.443772-5.807932 26.507689-8.343902l-10.619876 40.211529c-3.035964 11.139869-5.807932 19.463772-8.323902 25.035707-5.067941 13.63184-11.003871 26.271692-17.831791 37.891556-6.79992 11.615864-13.267845 21.763745-19.339773 30.347644-7.091917 10.143881-14.415831 19.435772-21.983742 28.075671l-93.266907 28.047671 76.583103 13.65584c-10.119881 8.5559-20.959754 17.419796-32.579618 26.523689-10.139881 7.539912-21.619747 15.531818-34.519595 23.90772-12.899849 8.315903-26.387691 16.071812-40.539525 23.135729-14.159834 7.067917-29.971649 10.691875-47.447444 11.003871-17.419796 0.235997-33.971602-0.88399-49.663418-3.41596-18.211787-2.53997-36.375574-6.82792-54.58336-12.907849 5.547935-8.579899 11.615864-18.203787 18.207787-28.819662 5.551935-9.107893 12.235857-19.875767 20.107764-32.223622 7.823908-12.399855 16.027812-26.199693 24.627711-41.327516 24.235716-40.96752 47.731441-81.159049 70.539173-120.582587 22.711734-39.407538 43.195494-75.06312 61.40728-106.902747 20.747757-36.915567 40.735523-71.791159 59.931298-104.666773-23.775721 27.29168-48.791428 57.899321-75.06312 91.758925-22.759733 28.835662-48.035437 63.095261-75.871111 102.742796-27.807674 39.687535-56.115342 83.027027-84.919005 130.070476-6.071929 9.571888-12.899849 20.763757-20.48776 33.355609-7.559911 12.659852-15.531818 26.055695-23.89572 40.239528-8.323902 14.119835-16.907802 28.683664-25.755698 43.571489-8.839896 14.891825-17.571794 29.495654-26.167693 43.579489-20.223763 32.911614-40.97152 67.287211-62.199271 103.182791 0.499994-10.619876 2.53597-24.275716 6.079929-40.96752 2.999965-14.155834 8.071905-31.867627 15.147822-53.083378 7.079917-21.223751 17.203798-46.255458 30.359644-75.039121 8.5719-18.231786 15.147822-32.359621 19.687769-42.491502 4.587946-10.095882 8.131905-17.91579 10.623876-23.515724 2.53997-6.071929 4.539947-10.119881 6.067929-12.135858-2.53597-3.007965-3.043964-9.103893-1.527982-18.207787 1.043988-8.083905 3.959954-19.819768 8.739898-35.255587 4.799944-15.411819 13.019847-37.011566 24.631711-64.82324 11.615864-28.307668 26.931684-58.799311 45.879462-91.398929s40.327527-64.935239 64.083249-97.038863c23.755722-32.111624 49.53542-63.195259 77.343094-93.298907 27.835674-30.071648 56.259341-56.719335 85.299-79.991063 29.119659-23.255727 58.183318-42.331504 87.250978-57.279329 29.01966-14.903825 57.235329-23.387726 84.543009-25.395702 0.475994 17.699793-1.255985 41.099518-5.279938 70.155178-4.031953 29.05566-9.127893 60.151295-15.199822 93.282907-6.019929 33.119612-12.871849 66.727218-20.43976 100.830818-7.603911 34.1316-14.931825 65.075237-22.023742 92.882912L859.355509 626.604657 859.355509 626.604657zM859.355509 626.604657" fill="#78BEF9" p-id="11959"></path></svg>